<svg width="164" height="38" viewBox="0 0 164 38" fill="none" xmlns="http://www.w3.org/2000/svg">
<g filter="url(#filter0_dd_13001_399)">
<rect x="3.1" y="2.1" width="31.8" height="31.8" rx="7.9" fill="white"/>
<rect x="3.1" y="2.1" width="31.8" height="31.8" rx="7.9" fill="url(#paint0_linear_13001_399)"/>
<rect x="3.1" y="2.1" width="31.8" height="31.8" rx="7.9" stroke="#D0D5DD" stroke-width="0.2"/>
<path d="M18.3546 13.1828C22.7105 11.4504 27.4742 12.8185 29.6373 14.9133C30.106 15.3671 30.5041 15.8275 30.845 16.2852C31.0394 15.2107 31.0552 14.1405 30.8681 13.1055C30.1847 9.32649 26.6195 7.18561 23.4233 8.29149C20.2415 9.3924 19.0005 11.5321 19.0005 11.5321C19.0005 11.5321 17.7595 9.3924 14.5777 8.29149C11.3812 7.18561 7.81603 9.32672 7.1328 13.1055C6.62842 15.8944 7.58356 18.9392 9.61033 21.6298C10.0372 21.7732 10.4847 21.8809 10.9586 21.9431C13.7978 22.3163 14.8184 21.557 16.0178 21.0486C16.8142 20.7113 17.4134 21.0942 17.3843 21.3626C17.3392 21.7786 15.7693 22.4895 16.106 22.6388C17.4351 23.2285 19.0718 23.2334 20.3053 22.18C21.838 20.8712 22.4114 21.7659 22.4114 21.7659C22.4114 21.7659 21.6502 23.7076 19.3581 24.6717C17.4457 25.4761 15.4419 25.6743 13.6107 25.4683C15.19 26.5846 17.0035 27.5204 19.0005 28.1883C24.7099 26.2784 28.9276 22.1871 30.4145 17.9096C29.4072 16.9157 28.1716 16.2996 26.6988 16.0763C23.8674 15.6471 22.8322 16.3863 21.6228 16.8708C20.8198 17.1926 20.2285 16.7978 20.263 16.5299C20.3161 16.1148 21.8999 15.4351 21.5661 15.279C20.249 14.6633 18.6125 14.626 17.3585 15.6549C15.8003 16.9332 15.2446 16.0274 15.2446 16.0274C15.2446 16.0274 16.0438 14.1015 18.3546 13.1828ZM17.2709 18.5052H18.3709V17.4052H19.6296V18.5052H20.7296V19.7639H19.6296V20.8639H18.3709V19.7639H17.2709V18.5052Z" fill="url(#paint1_linear_13001_399)"/>
<path d="M17.2709 18.5052H18.3709V17.4052H19.6296V18.5052H20.7295V19.7639H19.6378C21.2597 20.5834 24.2383 21.8027 27.8177 22.3451C28.9956 20.9517 29.8813 19.4428 30.4143 17.9096C29.4069 16.9157 28.1713 16.2996 26.6986 16.0763C23.8672 15.647 22.8319 16.3863 21.6226 16.8708C20.8196 17.1926 20.2282 16.7978 20.2627 16.5299C20.3159 16.1148 21.8997 15.4351 21.5659 15.279C20.2488 14.6633 18.6123 14.626 17.3583 15.6548C15.8 16.9332 15.2443 16.0274 15.2443 16.0274C15.2443 16.0274 16.0438 14.1013 18.3543 13.1823C22.7102 11.4499 27.4739 12.818 29.637 14.9128C30.1057 15.3666 30.5038 15.8271 30.8447 16.2847C31.0392 15.2102 31.055 14.14 30.8679 13.105C30.1844 9.326 26.6192 7.18512 23.423 8.291C20.2412 9.39191 19.0002 11.5316 19.0002 11.5316C19.0002 11.5316 17.7592 9.39191 14.5774 8.291C12.7519 7.65927 10.8067 8.0883 9.34619 9.27521C10.0323 10.7442 10.836 12.1168 13.1254 14.8773C14.9868 17.1222 17.2709 18.5052 17.2709 18.5052Z" fill="url(#paint2_linear_13001_399)"/>
<path opacity="0.31" d="M27.277 9.64954C24.2712 8.13944 21.169 10.4892 20.1851 11.7299C21.882 11.3725 23.3668 11.1892 25.2457 11.5839C28.0252 12.1679 29.0654 13.1715 30.3064 14.6542C30.0871 11.9069 28.3519 10.1896 27.277 9.64954Z" fill="url(#paint3_linear_13001_399)"/>
</g>
<path d="M46.728 28V10.12H49.848L56.544 19.216H55.056L61.608 10.12H64.728V28H61.44V13.84L62.712 14.152L55.92 23.2H55.536L48.912 14.152L49.992 13.84V28H46.728ZM74.0779 28.288C72.7339 28.288 71.5579 27.984 70.5499 27.376C69.5419 26.768 68.7579 25.944 68.1979 24.904C67.6379 23.864 67.3579 22.712 67.3579 21.448C67.3579 20.136 67.6379 18.976 68.1979 17.968C68.7739 16.944 69.5499 16.136 70.5259 15.544C71.5179 14.952 72.6219 14.656 73.8379 14.656C74.8619 14.656 75.7579 14.824 76.5259 15.16C77.3099 15.496 77.9739 15.96 78.5179 16.552C79.0619 17.144 79.4779 17.824 79.7659 18.592C80.0539 19.344 80.1979 20.16 80.1979 21.04C80.1979 21.264 80.1819 21.496 80.1499 21.736C80.1339 21.976 80.0939 22.184 80.0299 22.36H69.9499V19.96H78.2539L76.7659 21.088C76.9099 20.352 76.8699 19.696 76.6459 19.12C76.4379 18.544 76.0859 18.088 75.5899 17.752C75.1099 17.416 74.5259 17.248 73.8379 17.248C73.1819 17.248 72.5979 17.416 72.0859 17.752C71.5739 18.072 71.1819 18.552 70.9099 19.192C70.6539 19.816 70.5579 20.576 70.6219 21.472C70.5579 22.272 70.6619 22.984 70.9339 23.608C71.2219 24.216 71.6379 24.688 72.1819 25.024C72.7419 25.36 73.3819 25.528 74.1019 25.528C74.8219 25.528 75.4299 25.376 75.9259 25.072C76.4379 24.768 76.8379 24.36 77.1259 23.848L79.6699 25.096C79.4139 25.72 79.0139 26.272 78.4699 26.752C77.9259 27.232 77.2779 27.608 76.5259 27.88C75.7899 28.152 74.9739 28.288 74.0779 28.288ZM88.6532 28.288C87.3892 28.288 86.2612 27.992 85.2692 27.4C84.2772 26.792 83.4932 25.968 82.9172 24.928C82.3412 23.888 82.0532 22.736 82.0532 21.472C82.0532 20.192 82.3412 19.04 82.9172 18.016C83.4932 16.992 84.2772 16.176 85.2692 15.568C86.2772 14.96 87.3972 14.656 88.6292 14.656C89.6212 14.656 90.5012 14.856 91.2692 15.256C92.0532 15.64 92.6692 16.184 93.1172 16.888L92.6372 17.536V9.832H95.7812V28H92.8052V25.48L93.1412 26.104C92.6932 26.808 92.0692 27.352 91.2692 27.736C90.4692 28.104 89.5972 28.288 88.6532 28.288ZM88.9892 25.408C89.7092 25.408 90.3412 25.24 90.8852 24.904C91.4292 24.568 91.8532 24.104 92.1572 23.512C92.4772 22.92 92.6372 22.24 92.6372 21.472C92.6372 20.72 92.4772 20.048 92.1572 19.456C91.8532 18.848 91.4292 18.376 90.8852 18.04C90.3412 17.704 89.7092 17.536 88.9892 17.536C88.2852 17.536 87.6532 17.712 87.0932 18.064C86.5332 18.4 86.0932 18.864 85.7732 19.456C85.4692 20.032 85.3172 20.704 85.3172 21.472C85.3172 22.24 85.4692 22.92 85.7732 23.512C86.0932 24.104 86.5332 24.568 87.0932 24.904C87.6532 25.24 88.2852 25.408 88.9892 25.408ZM98.7062 28V14.944H101.85V28H98.7062ZM98.7062 13.48V10.12H101.85V13.48H98.7062ZM113.489 28.288C112.209 28.288 111.025 28.056 109.937 27.592C108.849 27.128 107.897 26.48 107.081 25.648C106.265 24.816 105.625 23.84 105.161 22.72C104.713 21.6 104.489 20.376 104.489 19.048C104.489 17.72 104.705 16.496 105.137 15.376C105.585 14.24 106.209 13.264 107.009 12.448C107.825 11.616 108.777 10.976 109.865 10.528C110.953 10.064 112.137 9.832 113.417 9.832C114.697 9.832 115.841 10.048 116.849 10.48C117.873 10.912 118.737 11.488 119.441 12.208C120.145 12.912 120.649 13.688 120.953 14.536L118.049 15.928C117.713 15 117.145 14.248 116.345 13.672C115.545 13.096 114.569 12.808 113.417 12.808C112.297 12.808 111.305 13.072 110.441 13.6C109.593 14.128 108.929 14.856 108.449 15.784C107.985 16.712 107.753 17.8 107.753 19.048C107.753 20.296 107.993 21.392 108.473 22.336C108.969 23.264 109.649 23.992 110.513 24.52C111.377 25.048 112.369 25.312 113.489 25.312C114.401 25.312 115.241 25.136 116.009 24.784C116.777 24.416 117.393 23.904 117.857 23.248C118.321 22.576 118.553 21.784 118.553 20.872V19.504L120.041 20.8H113.417V18.04H121.817V19.84C121.817 21.216 121.585 22.432 121.121 23.488C120.657 24.544 120.025 25.432 119.225 26.152C118.441 26.856 117.553 27.392 116.561 27.76C115.569 28.112 114.545 28.288 113.489 28.288ZM130.52 28.288C129.24 28.288 128.072 27.992 127.016 27.4C125.976 26.808 125.144 26 124.52 24.976C123.912 23.952 123.608 22.784 123.608 21.472C123.608 20.16 123.912 18.992 124.52 17.968C125.144 16.944 125.976 16.136 127.016 15.544C128.056 14.952 129.224 14.656 130.52 14.656C131.8 14.656 132.96 14.952 134 15.544C135.04 16.136 135.864 16.944 136.472 17.968C137.096 18.976 137.408 20.144 137.408 21.472C137.408 22.784 137.096 23.952 136.472 24.976C135.848 26 135.016 26.808 133.976 27.4C132.936 27.992 131.784 28.288 130.52 28.288ZM130.52 25.408C131.224 25.408 131.84 25.24 132.368 24.904C132.912 24.568 133.336 24.104 133.64 23.512C133.96 22.904 134.12 22.224 134.12 21.472C134.12 20.704 133.96 20.032 133.64 19.456C133.336 18.864 132.912 18.4 132.368 18.064C131.84 17.712 131.224 17.536 130.52 17.536C129.8 17.536 129.168 17.712 128.624 18.064C128.08 18.4 127.648 18.864 127.328 19.456C127.024 20.032 126.872 20.704 126.872 21.472C126.872 22.224 127.024 22.904 127.328 23.512C127.648 24.104 128.08 24.568 128.624 24.904C129.168 25.24 129.8 25.408 130.52 25.408Z" fill="white"/>
<defs>
<filter id="filter0_dd_13001_399" x="0" y="0" width="38" height="38" filterUnits="userSpaceOnUse" color-interpolation-filters="sRGB">
<feFlood flood-opacity="0" result="BackgroundImageFix"/>
<feColorMatrix in="SourceAlpha" type="matrix" values="0 0 0 0 0 0 0 0 0 0 0 0 0 0 0 0 0 0 127 0" result="hardAlpha"/>
<feOffset dy="1"/>
<feGaussianBlur stdDeviation="1"/>
<feColorMatrix type="matrix" values="0 0 0 0 0.0627451 0 0 0 0 0.0941176 0 0 0 0 0.156863 0 0 0 0.06 0"/>
<feBlend mode="normal" in2="BackgroundImageFix" result="effect1_dropShadow_13001_399"/>
<feColorMatrix in="SourceAlpha" type="matrix" values="0 0 0 0 0 0 0 0 0 0 0 0 0 0 0 0 0 0 127 0" result="hardAlpha"/>
<feOffset dy="1"/>
<feGaussianBlur stdDeviation="1.5"/>
<feColorMatrix type="matrix" values="0 0 0 0 0.0627451 0 0 0 0 0.0941176 0 0 0 0 0.156863 0 0 0 0.1 0"/>
<feBlend mode="normal" in2="effect1_dropShadow_13001_399" result="effect2_dropShadow_13001_399"/>
<feBlend mode="normal" in="SourceGraphic" in2="effect2_dropShadow_13001_399" result="shape"/>
</filter>
<linearGradient id="paint0_linear_13001_399" x1="19" y1="2" x2="19" y2="34" gradientUnits="userSpaceOnUse">
<stop stop-color="white"/>
<stop offset="1" stop-color="#D0D5DD"/>
</linearGradient>
<linearGradient id="paint1_linear_13001_399" x1="10.1989" y1="24.2137" x2="27.8347" y2="6.57791" gradientUnits="userSpaceOnUse">
<stop stop-color="#0076C1"/>
<stop offset="0.0737" stop-color="#0B82C6"/>
<stop offset="0.2766" stop-color="#269ED3"/>
<stop offset="0.4546" stop-color="#36AFDA"/>
<stop offset="0.587" stop-color="#3CB5DD"/>
</linearGradient>
<linearGradient id="paint2_linear_13001_399" x1="10.1388" y1="24.2537" x2="27.8274" y2="6.56509" gradientUnits="userSpaceOnUse">
<stop stop-color="#00A482"/>
<stop offset="1" stop-color="#79DD83"/>
</linearGradient>
<linearGradient id="paint3_linear_13001_399" x1="24.8608" y1="13.5073" x2="28.5288" y2="10.1132" gradientUnits="userSpaceOnUse">
<stop stop-color="#00A482"/>
<stop offset="1" stop-color="#79DD83"/>
</linearGradient>
</defs>
</svg>
